<svg width="21" height="20" viewBox="0 0 21 20" fill="none" xmlns="http://www.w3.org/2000/svg">
<path fill-rule="evenodd" clip-rule="evenodd" d="M2.28906 4.375C2.28906 4.02982 2.56888 3.75 2.91406 3.75H17.9141C18.2592 3.75 18.5391 4.02982 18.5391 4.375V15C18.5391 15.3315 18.4074 15.6495 18.1729 15.8839C17.9385 16.1183 17.6206 16.25 17.2891 16.25H3.53906C3.20754 16.25 2.8896 16.1183 2.65518 15.8839C2.42076 15.6495 2.28906 15.3315 2.28906 15V4.375ZM3.53906 5V15H17.2891V5H3.53906Z" fill="white"/>
<path fill-rule="evenodd" clip-rule="evenodd" d="M2.45334 3.95268C2.68659 3.69823 3.08194 3.68104 3.33639 3.91428L10.4141 10.4021L17.4917 3.91428C17.7462 3.68104 18.1415 3.69823 18.3748 3.95268C18.608 4.20713 18.5908 4.60248 18.3364 4.83573L10.8364 11.7107C10.5974 11.9298 10.2307 11.9298 9.99174 11.7107L2.49174 4.83573C2.23729 4.60248 2.2201 4.20713 2.45334 3.95268Z" fill="white"/>
</svg>
