<svg width="21" height="20" viewBox="0 0 21 20" fill="none" xmlns="http://www.w3.org/2000/svg">
<path fill-rule="evenodd" clip-rule="evenodd" d="M6.29553 12.4494C6.40555 12.7766 6.22951 13.131 5.90234 13.241C4.84292 13.5973 4.27989 14.4866 3.97873 15.391C3.85914 15.7501 3.78689 16.0958 3.74348 16.3817C4.02934 16.3383 4.37506 16.266 4.73417 16.1464C5.63855 15.8453 6.5279 15.2823 6.88416 14.2228C6.99418 13.8957 7.3486 13.7196 7.67578 13.8296C8.00295 13.9397 8.17899 14.2941 8.06896 14.6213C7.5346 16.2103 6.21301 16.9715 5.12911 17.3324C4.58155 17.5148 4.06895 17.6048 3.6948 17.6497C3.50682 17.6722 3.35141 17.6836 3.241 17.6894C3.18574 17.6924 3.14158 17.6939 3.11005 17.6946C3.09428 17.695 3.08166 17.6952 3.07237 17.6954L3.06096 17.6955L3.05717 17.6955L3.05577 17.6955L3.05519 17.6955C3.05493 17.6955 3.05469 17.6955 3.05469 17.0705C2.42969 17.0705 2.42969 17.0702 2.42969 17.07L2.42969 17.0694L2.42969 17.068L2.42971 17.0642L2.42981 17.0528C2.42993 17.0435 2.43014 17.0309 2.43053 17.0151C2.43131 16.9836 2.43282 16.9394 2.43572 16.8842C2.44153 16.7738 2.45297 16.6184 2.47552 16.4304C2.5204 16.0562 2.61042 15.5436 2.79276 14.9961C3.1537 13.9122 3.91489 12.5906 5.50391 12.0562C5.83108 11.9462 6.1855 12.1222 6.29553 12.4494ZM3.05469 17.0705H2.42969C2.42969 17.4157 2.70951 17.6955 3.05469 17.6955V17.0705Z" fill="white"/>
<path fill-rule="evenodd" clip-rule="evenodd" d="M16.6712 3.45406C15.9458 3.34943 14.1601 3.31002 12.3326 5.13753L7.46982 10.0003L10.125 12.6555L14.9877 7.79271C16.8153 5.9652 16.7758 4.17951 16.6712 3.45406ZM16.8525 2.21727C15.8548 2.07282 13.6308 2.07157 11.4487 4.25365L6.144 9.55834C6.02679 9.67555 5.96094 9.83452 5.96094 10.0003C5.96094 10.166 6.02679 10.325 6.144 10.4422L9.68306 13.9813C9.92714 14.2254 10.3229 14.2254 10.5669 13.9813L15.8716 8.67659C18.0537 6.49452 18.0525 4.27052 17.908 3.27282C17.8715 3.0058 17.7485 2.75803 17.5579 2.5674C17.3672 2.37678 17.1195 2.25382 16.8525 2.21727Z" fill="white"/>
<path fill-rule="evenodd" clip-rule="evenodd" d="M14.547 8.49219C14.8922 8.49219 15.172 8.77201 15.172 9.11719V14.1641L15.1719 14.173C15.1673 14.5013 15.0336 14.8145 14.8 15.045L12.2777 17.575C12.1176 17.7349 11.9171 17.8484 11.6975 17.9033C11.478 17.9582 11.2477 17.9524 11.0311 17.8867C10.8146 17.8209 10.62 17.6976 10.468 17.5299C10.3162 17.3623 10.2127 17.1567 10.1685 16.9349C10.1684 16.9347 10.1685 16.9351 10.1685 16.9349L9.51231 13.6619C9.44446 13.3235 9.66382 12.9941 10.0023 12.9263C10.3407 12.8584 10.6701 13.0778 10.7379 13.4162L11.3944 16.6906L13.922 14.1552V9.11719C13.922 8.77201 14.2018 8.49219 14.547 8.49219Z" fill="white"/>
<path fill-rule="evenodd" clip-rule="evenodd" d="M5.95125 4.95319L5.96015 4.95312H11.007C11.3522 4.95312 11.632 5.23295 11.632 5.57812C11.632 5.9233 11.3522 6.20312 11.007 6.20312H5.96899L5.96394 6.20828L5.96391 6.20825L3.43359 8.73075L3.43456 8.73094L6.708 9.38719C7.04644 9.45504 7.2658 9.78441 7.19795 10.1229C7.1301 10.4613 6.80074 10.6807 6.46229 10.6128L3.18983 9.95675C3.18964 9.95671 3.18945 9.95668 3.18926 9.95664C2.96752 9.91244 2.7619 9.80892 2.59433 9.65711C2.42662 9.50516 2.3033 9.31054 2.23754 9.094C2.17177 8.87746 2.16603 8.64712 2.22092 8.42757C2.27581 8.20802 2.38927 8.00749 2.5492 7.84738L2.55014 7.84644L2.55014 7.84644L5.07924 5.32514C5.30975 5.09151 5.62296 4.95786 5.95125 4.95319Z" fill="white"/>
</svg>
