<svg width="21" height="20" viewBox="0 0 21 20" fill="none" xmlns="http://www.w3.org/2000/svg">
<path fill-rule="evenodd" clip-rule="evenodd" d="M10.875 3.125C8.45875 3.125 6.5 5.08375 6.5 7.5C6.5 9.91625 8.45875 11.875 10.875 11.875C13.2912 11.875 15.25 9.91625 15.25 7.5C15.25 5.08375 13.2912 3.125 10.875 3.125ZM5.25 7.5C5.25 4.3934 7.7684 1.875 10.875 1.875C13.9816 1.875 16.5 4.3934 16.5 7.5C16.5 10.6066 13.9816 13.125 10.875 13.125C7.7684 13.125 5.25 10.6066 5.25 7.5Z" fill="#001C30"/>
<path fill-rule="evenodd" clip-rule="evenodd" d="M10.8751 13.124C9.44874 13.124 8.04751 13.4995 6.81228 14.2128C5.57705 14.926 4.55134 15.9518 3.83827 17.1872C3.66571 17.4861 3.28348 17.5886 2.98453 17.416C2.68558 17.2435 2.58312 16.8612 2.75568 16.5623C3.57845 15.1369 4.76196 13.9532 6.18723 13.1303C7.6125 12.3073 9.2293 11.874 10.8751 11.874C12.5209 11.874 14.1377 12.3073 15.563 13.1303C16.9882 13.9532 18.1718 15.1369 18.9945 16.5623C19.1671 16.8612 19.0646 17.2435 18.7657 17.416C18.4667 17.5886 18.0845 17.4861 17.9119 17.1872C17.1989 15.9518 16.1732 14.926 14.9379 14.2128C13.7027 13.4995 12.3015 13.124 10.8751 13.124Z" fill="#001C30"/>
</svg>
